<?xml version="1.0" encoding="UTF-8" standalone="no"?>
<!-- Created with Inkscape (http://www.inkscape.org/) -->

<svg
   xmlns:dc="http://purl.org/dc/elements/1.1/"
   xmlns:cc="http://creativecommons.org/ns#"
   xmlns:rdf="http://www.w3.org/1999/02/22-rdf-syntax-ns#"
   xmlns:svg="http://www.w3.org/2000/svg"
   xmlns="http://www.w3.org/2000/svg"
   xmlns:sodipodi="http://sodipodi.sourceforge.net/DTD/sodipodi-0.dtd"
   xmlns:inkscape="http://www.inkscape.org/namespaces/inkscape"
   width="66.88707"
   height="66.778313"
   id="svg2"
   version="1.1"
   inkscape:version="0.48.2 r9819"
   sodipodi:docname="favicon.svg">
  <defs
     id="defs4" />
  <sodipodi:namedview
     id="base"
     pagecolor="#ffffff"
     bordercolor="#666666"
     borderopacity="1.0"
     inkscape:pageopacity="0.0"
     inkscape:pageshadow="2"
     inkscape:zoom="11.313708"
     inkscape:cx="46.923524"
     inkscape:cy="31.373131"
     inkscape:document-units="px"
     inkscape:current-layer="text2985-3"
     showgrid="false"
     inkscape:window-width="1920"
     inkscape:window-height="1176"
     inkscape:window-x="0"
     inkscape:window-y="24"
     inkscape:window-maximized="1"
     fit-margin-top="0.2"
     fit-margin-left="0.2"
     fit-margin-right="0.2"
     fit-margin-bottom="0.2" />
  <metadata
     id="metadata7">
    <rdf:RDF>
      <cc:Work
         rdf:about="">
        <dc:format>image/svg+xml</dc:format>
        <dc:type
           rdf:resource="http://purl.org/dc/dcmitype/StillImage" />
        <dc:title />
      </cc:Work>
    </rdf:RDF>
  </metadata>
  <g
     inkscape:label="Layer 1"
     inkscape:groupmode="layer"
     id="layer1"
     transform="translate(-280.92144,-225.95733)">
    <g
       style="font-size:40px;font-style:normal;font-variant:normal;font-weight:normal;font-stretch:normal;line-height:125%;letter-spacing:0px;word-spacing:0px;fill:none;stroke:#000000;stroke-width:0.1;stroke-miterlimit:4;stroke-opacity:1;font-family:Arial;-inkscape-font-specification:Arial"
       id="text2985-3">
      <path
         id="path3192-3"
         style="font-size:40px;font-style:normal;font-variant:normal;font-weight:normal;font-stretch:normal;line-height:125%;letter-spacing:0px;word-spacing:0px;fill:#cccccc;fill-opacity:1;stroke:#b4b4b4;stroke-width:0.11831648;stroke-linecap:butt;stroke-linejoin:miter;stroke-miterlimit:4;stroke-opacity:1;stroke-dasharray:none;font-family:Arial;-inkscape-font-specification:Arial"
         d="m 285.44291,231.06602 c -0.27867,0.28869 -0.49417,0.79311 -0.67171,1.15293 -0.33942,0.6879 -0.90109,2.2527 -0.90109,2.2527 0,0 -1.31542,3.95804 -1.66302,5.94208 -0.25901,1.47844 -0.71514,2.98648 -0.32081,4.43471 0.52018,1.91043 3.36856,4.89243 3.36856,4.89243 0,0 -0.60488,-1.35897 -0.64163,-2.0853 -0.0344,-0.68073 0.0658,-1.4116 0.40102,-2.0051 0.40946,-0.72501 1.17387,-1.19103 1.84469,-1.68428 0.89768,-0.66006 3.05748,-1.79771 3.05748,-1.79771 0,0 0.22603,-1.06021 0.38511,-1.57763 0.19865,-0.64609 0.45902,-1.27182 0.70891,-1.89988 0.19731,-0.49587 0.62384,-1.47453 0.62384,-1.47453 0,0 -0.61923,-0.31704 -0.9074,-0.51041 -0.24025,-0.16122 -0.47309,-0.33709 -0.68055,-0.53877 -0.27422,-0.26657 -0.51421,-0.5684 -0.73727,-0.87905 -0.26474,-0.36869 -0.5107,-0.75427 -0.7089,-1.16261 -0.18937,-0.39014 -0.347,-0.79899 -0.45371,-1.21932 -0.11484,-0.45239 -0.19677,-1.38632 -0.19677,-1.38632 0,0 -0.69374,-0.2671 -1.0566,-0.33867 -0.47574,-0.0938 -1.45015,-0.11527 -1.45015,-0.11527 z"
         inkscape:connector-curvature="0"
         sodipodi:nodetypes="cscsscssscaacaaaaacac" />
      <path
         style="font-size:40px;font-style:normal;font-variant:normal;font-weight:normal;font-stretch:normal;line-height:125%;letter-spacing:0px;word-spacing:0px;fill:#ff5555;fill-opacity:1;stroke:#ff0d0d;stroke-width:0.11831648;stroke-linecap:butt;stroke-linejoin:miter;stroke-miterlimit:4;stroke-opacity:1;stroke-dasharray:none;font-family:Arial;-inkscape-font-specification:Arial"
         d="m 291.65135,237.23558 c 0,0 -0.61923,-0.31705 -0.9074,-0.51042 -0.24026,-0.16122 -0.47309,-0.33709 -0.68056,-0.53877 -0.27421,-0.26657 -0.51421,-0.5684 -0.73726,-0.87904 -0.26474,-0.3687 -0.51071,-0.75428 -0.70891,-1.16262 -0.18937,-0.39013 -0.33967,-0.80092 -0.4537,-1.21932 -0.1136,-0.41681 -0.23688,-1.40637 -0.23688,-1.40637 0,0 0.9615,0.51989 1.40904,0.83156 0.72915,0.50779 1.47542,1.07614 2.06687,1.68335 0.23825,0.2446 0.4704,0.38584 0.68541,0.60034 0.18774,0.18729 0.52561,0.59721 0.52561,0.59721 z"
         id="path3236-3"
         inkscape:connector-curvature="0"
         sodipodi:nodetypes="cssssscasacc" />
      <path
         id="path4050-9"
         style="font-size:40px;font-style:normal;font-variant:normal;font-weight:normal;font-stretch:normal;line-height:125%;letter-spacing:0px;word-spacing:0px;fill:#dcdcdc;fill-opacity:1;stroke:#b9b9b9;stroke-width:0.11831648;stroke-linecap:butt;stroke-linejoin:miter;stroke-miterlimit:4;stroke-opacity:1;stroke-dasharray:none;font-family:Arial;-inkscape-font-specification:Arial"
         d="m 289.81763,242.30422 c -0.12051,0.81711 -0.1422,1.64713 -0.15536,2.47297 -0.0219,1.3715 -0.12655,2.76503 0.12701,4.11307 0.16256,0.86424 0.43709,1.72791 0.88224,2.48632 0.73838,1.25801 2.88734,3.28836 2.88734,3.28836 0,0 -1.13289,-2.50809 -1.36347,-3.84979 -0.11773,-0.68505 -0.19687,-1.41866 0,-2.0853 0.15332,-0.51917 0.49457,-0.98565 0.88225,-1.36347 0.40388,-0.39361 0.89202,-0.76499 1.44367,-0.88224 0.60656,-0.12892 1.25972,0.0348 1.84469,0.24061 0.67906,0.23887 1.3413,0.60828 1.84469,1.12285 0.41044,0.41958 0.88224,1.52388 0.88224,1.52388 0,0 0.80204,-0.72183 1.52388,0.24061 l 0.67882,0.81052 c 0,0 0.30549,-0.28879 0.50127,-0.32082 0.19037,-0.0311 0.39772,0.0383 0.56143,0.14036 0.57157,0.35623 1.30331,1.54393 1.30331,1.54393 0,0 0.27824,-0.28077 0.46117,-0.32082 0.18571,-0.0407 0.39587,0.007 0.56143,0.10026 0.50321,0.28398 1.14291,1.30331 1.14291,1.30331 0,0 0.32863,-0.1578 0.50127,-0.14036 0.27659,0.028 0.51234,0.22416 0.74189,0.38097 0.38315,0.26175 1.04265,0.92235 1.04265,0.92235 0,0 0.82163,0.0291 1.18301,0.20051 0.56922,0.26997 1.0063,0.77119 1.42361,1.24316 0.34751,0.39301 0.60313,0.85911 0.88225,1.30331 0.22627,0.3601 0.64163,1.1028 0.64163,1.1028 l 0.32082,11.99049 c 0,0 1.00562,-2.2389 1.50281,-3.38962 0.46732,-1.08159 1.38453,-3.30741 1.38453,-3.30741 0,0 0.24016,-1.6424 0.44112,-2.44622 0.10047,-0.4019 0.21092,-0.80523 0.38097,-1.183 0.1562,-0.34702 0.37612,-0.6621 0.58147,-0.9825 0.2281,-0.35589 0.70501,-1.11342 0.70501,-1.11342 -0.50316,-0.14202 -0.96432,-0.3704 -1.3803,-0.63219 -0.30442,-0.19158 -0.80204,-0.72184 -0.80204,-0.72184 0,0 -0.78967,0.0277 -1.16296,-0.0802 -0.37921,-0.10962 -0.73139,-0.31867 -1.04265,-0.56143 -0.32829,-0.25604 -0.84214,-0.92235 -0.84214,-0.92235 0,0 -0.70612,0.0868 -1.04265,0 -0.56197,-0.14494 -1.04366,-0.51623 -1.52388,-0.84214 -0.40078,-0.272 -1.12285,-0.92234 -1.12285,-0.92234 0,0 -0.49168,-0.16377 -0.72184,-0.28071 -0.35372,-0.17973 -0.69337,-0.39297 -1.00255,-0.64164 -0.383,-0.30804 -1.04265,-1.04265 -1.04265,-1.04265 0,0 -0.55386,-0.20485 -0.80204,-0.36091 -0.56215,-0.35352 -1.13494,-0.74501 -1.52387,-1.28327 -0.25296,-0.35009 -0.48122,-1.20306 -0.48122,-1.20306 0,0 -0.53283,-0.0721 -0.76194,-0.20051 -0.38765,-0.2172 -0.72038,-0.54972 -0.96245,-0.92235 -0.19349,-0.29784 -0.36092,-1.00254 -0.36092,-1.00254 0,0 -0.74982,-0.29673 -1.04265,-0.56143 -0.40705,-0.36796 -0.74851,-0.84302 -0.92234,-1.36347 -0.0848,-0.25389 -0.0401,-0.80204 -0.0401,-0.80204 0,0 -0.48384,-0.25646 -0.68174,-0.44112 -0.34207,-0.31918 -0.66127,-0.69137 -0.84214,-1.12285 -0.17248,-0.41147 -0.20051,-1.32337 -0.20051,-1.32337 l -0.60153,-0.56143 -1.04265,-2.2457 0,0 c 0,0 -1.41611,-1.78678 -2.20561,-2.60663 -0.86634,-0.89965 -1.62652,-2.01735 -2.76703,-2.52643 -0.24535,-0.10951 -0.80204,-0.0802 -0.80204,-0.0802 0,0 -1.36899,-1.34072 -2.24571,-1.64418 -0.36654,-0.12687 -0.78832,-0.14059 -1.16296,-0.0401 -0.3654,0.098 -0.69969,0.32933 -0.96244,0.60153 0,0 0.73526,-0.0203 1.09669,0.0358 0.44647,0.0693 0.88915,0.19053 1.30439,0.36863 0.54526,0.23388 1.04109,0.5731 1.53124,0.90741 0.5842,0.39846 1.13544,0.84498 1.67303,1.30439 0.30503,0.26068 0.59362,0.54033 0.87904,0.82234 0.22351,0.22083 0.6522,0.68055 0.6522,0.68055 0,0 -1.05089,2.26346 -1.5596,3.40276 -0.1933,0.43292 -0.40295,0.85961 -0.56713,1.30439 -0.16772,0.45441 -0.29914,0.92183 -0.42534,1.38947 -0.0871,0.32263 -0.17992,0.6455 -0.22868,0.9761 z"
         inkscape:connector-curvature="0"
         sodipodi:nodetypes="aaascssssssccccsccccsscsssccscssscscsscsscsscsscsscsscssccccsscsscaaaaacaaaa" />
      <path
         style="font-size:40px;font-style:normal;font-variant:normal;font-weight:normal;font-stretch:normal;line-height:125%;letter-spacing:0px;word-spacing:0px;fill:#327c32;fill-opacity:1;stroke:none;font-family:Arial;-inkscape-font-specification:Arial"
         d="m 301.25846,250.36731 c 0,0 0.2735,-0.26951 0.46928,-0.30154 0.19037,-0.0311 0.39771,0.0383 0.56142,0.14036 0.57157,0.35623 1.30332,1.54392 1.30332,1.54392 0,0 0.27824,-0.28076 0.46117,-0.32081 0.18571,-0.0407 0.39587,0.007 0.56143,0.10025 0.50321,0.28399 1.1429,1.30331 1.1429,1.30331 0,0 0.32864,-0.1578 0.50128,-0.14035 0.27659,0.0279 0.51234,0.22415 0.74188,0.38097 0.38316,0.26174 1.04266,0.92234 1.04266,0.92234 0,0 0.82163,0.0291 1.183,0.20051 0.56923,0.26998 1.00631,0.77119 1.42362,1.24316 0.34751,0.39302 0.60313,0.85911 0.88225,1.30331 0.22627,0.36011 0.64163,1.10281 0.64163,1.10281 l 0.32081,11.99048 -4.50154,7.95226 c 0,0 -1.82893,0.48827 -2.85367,0.7324 -1.02475,0.24413 -2.10936,0.43962 -3.15444,0.57199 -0.71844,0.091 -2.10247,0.0386 -2.82437,0.096 -0.5919,0.0471 -1.24789,0.0953 -1.86884,0.17 l 1.00576,-1.33746 1.44617,-1.47453 2.26851,-1.89988 1.95659,-1.47453 2.04166,-1.44618 1.67303,-0.93576 1.27603,-1.50288 0.79398,-2.32522 0.28356,-2.26851 -0.39698,-2.32523 -0.80577,-3.88544 -0.84214,-2.28581 -0.92234,-1.36346 -1.20306,-0.96245 -1.24316,-0.84214 -1.32337,-0.92235 z"
         id="path4238-2"
         inkscape:connector-curvature="0"
         sodipodi:nodetypes="ccsccccsscssscccssscccccccccccccccccc" />
      <path
         style="font-size:40px;font-style:normal;font-variant:normal;font-weight:normal;font-stretch:normal;line-height:125%;letter-spacing:0px;word-spacing:0px;fill:#ff3b3b;fill-opacity:1;stroke:#c62c2c;stroke-width:0.0236633;stroke-miterlimit:4;stroke-opacity:1;font-family:Arial;-inkscape-font-specification:Arial"
         d="m 289.90453,283.4515 c 0,0 -0.57017,0.28628 -0.90741,0.35446 -0.29477,0.0596 -0.89566,0.24891 -0.89566,0.24891 l -0.43394,0.17157 c 0,0 -0.48366,0.25514 -0.80199,0.3735 -0.46482,0.17281 -1.2408,0.33855 -1.2408,0.33855 l -0.56428,0.16528 c 0,0 -0.88914,0.42941 -1.30926,0.68713 -0.30626,0.18788 -0.87904,0.62384 -0.87904,0.62384 l -0.34028,0.6522 c 0,0 -0.25879,0.45627 -0.31192,0.70891 -0.0486,0.23124 -0.0481,0.47755 0,0.70891 0.0483,0.23209 0.16119,0.44917 0.28356,0.65219 0.15622,0.25918 0.32434,0.52828 0.56713,0.70891 0.51419,0.38253 1.16625,0.5453 1.78318,0.71881 0.3131,0.0881 0.64318,0.0984 0.96245,0.16041 0.36293,0.0705 1.08275,0.24061 1.08275,0.24061 0,0 0.73424,-0.0786 1.10281,-0.0802 0.31476,-10e-4 0.62929,0.0278 0.94239,0.0602 0.38619,0.04 1.15293,0.16542 1.15293,0.16542 0,0 -0.0559,-0.8061 0.0501,-1.18802 0.0448,-0.16139 0.12502,-0.31991 0.24061,-0.44112 0.2484,-0.26047 0.62212,-0.36291 0.92235,-0.56143 0.14755,-0.0976 0.28599,-0.20831 0.43139,-0.30907 0.51899,-0.35965 1.04266,-0.7128 1.5737,-1.0544 0.14099,-0.0907 0.28769,-0.17232 0.42796,-0.2641 0.79374,-0.51938 1.52408,-1.13536 2.33908,-1.62069 0.13469,-0.0802 0.27928,-0.14247 0.41965,-0.21226 1.81891,-0.90428 3.71379,-1.6636 5.47534,-2.67508 1.04491,-0.59999 2.02403,-1.30917 3.00765,-2.0051 0.70929,-0.50184 1.49217,-0.92904 2.0853,-1.56398 0.40243,-0.4308 0.96244,-1.48377 0.96244,-1.48377 0,0 -3.6845,1.02933 -5.57417,1.28327 -0.86904,0.11678 -1.7534,0.0501 -2.62837,0.10753 -0.85265,0.056 -1.70572,0.12065 -2.55303,0.23117 -0.38984,0.0508 -0.79639,0.0555 -1.16261,0.19849 -0.38831,0.15162 -0.70738,0.44193 -1.04919,0.68055 -0.42626,0.29759 -0.86048,0.58886 -1.24768,0.93576 -0.30879,0.27667 -0.54305,0.62946 -0.85069,0.90741 -0.33525,0.30291 -0.65782,0.65503 -1.07754,0.82233 -0.24725,0.0986 -0.53195,0.0383 -0.79398,0.0851 -0.13488,0.0241 -0.24542,-0.03 -0.41016,0.0269 -0.15498,0.0535 -0.41217,0.24002 -0.41217,0.24002 z"
         id="path4124-5"
         inkscape:connector-curvature="0"
         sodipodi:nodetypes="cccccccaccaasaaacaacaaaaaaaaaascaaaacccacccc" />
      <path
         id="path4189-7"
         style="font-size:40px;font-style:normal;font-variant:normal;font-weight:normal;font-stretch:normal;line-height:125%;letter-spacing:0px;word-spacing:0px;fill:#ff5555;fill-opacity:1;stroke:#ff2b2b;stroke-width:0.0236633;stroke-miterlimit:4;stroke-opacity:1;font-family:Arial;-inkscape-font-specification:Arial"
         d="m 296.55843,285.35558 c 0,0 0.87528,-0.34856 2.02392,-0.89089 1.14864,-0.54234 2.52811,-1.19338 3.40888,-1.69912 1.04491,-0.59999 2.02403,-1.30918 3.00765,-2.0051 0.7093,-0.50184 1.46726,-1.03101 2.03203,-1.49581 l -1.03831,1.55729 -1.58826,1.97924 c -0.27135,0.21301 -0.60153,0.84214 -0.60153,0.84214 0,0 -0.72428,0.35732 -1.04265,0.60153 -0.40499,0.31065 -0.77112,0.67851 -1.08275,1.08275 -0.22676,0.29415 -0.56143,0.96245 -0.56143,0.96245 0,0 -0.83002,0.69298 -1.20306,1.08275 -0.20354,0.21268 -0.56142,0.68173 -0.56142,0.68173 0,0 -0.86619,0.26608 -1.28327,0.44112 -0.44098,0.18508 -0.87088,0.39944 -1.28326,0.64163 -0.30692,0.18026 -0.88224,0.60154 -0.88224,0.60154 0,0 -0.59569,0.009 -0.88225,0.0802 -0.43605,0.1085 -0.87925,0.25772 -1.24316,0.52132 -0.21488,0.15566 -0.52132,0.60153 -0.52132,0.60153 0,0 -0.77508,-0.0406 -1.16296,-0.0401 -0.36116,4.7e-4 -0.72543,-0.0125 -1.08275,0.0401 -0.31435,0.0463 -0.91288,0.18027 -0.91288,0.18027 0,0 -0.0577,-0.81839 0.0512,-1.21844 0.044,-0.16161 0.13755,-0.31991 0.25315,-0.44112 0.2484,-0.26047 0.90229,-0.6316 0.90229,-0.6316 l 0.45144,-0.23889 1.3818,-0.92265 0.7191,-0.48092 1.69763,-1.2237 z"
         inkscape:connector-curvature="0"
         sodipodi:nodetypes="csssccccsscscssccsccccsscccccc" />
      <path
         id="path4098-4"
         style="font-size:40px;font-style:normal;font-variant:normal;font-weight:normal;font-stretch:normal;line-height:125%;letter-spacing:0px;word-spacing:0px;fill:#e6e6e6;stroke:#b8b8b8;stroke-width:0.11831648;stroke-linecap:butt;stroke-linejoin:miter;stroke-miterlimit:4;stroke-opacity:1;stroke-dasharray:none;font-family:Arial;-inkscape-font-specification:Arial"
         d="m 306.15272,280.57333 c 1.38357,-1.93846 2.57629,-4.00825 3.7714,-6.06826 0.93805,-1.61692 1.83684,-3.25839 2.6655,-4.93401 1.02021,-2.06295 2.83563,-6.29511 2.83563,-6.29511 0,0 0.23584,-1.4618 0.38728,-2.18622 0.0816,-0.39035 0.13954,-0.79 0.28072,-1.16296 0.18206,-0.48094 0.46434,-0.91832 0.72183,-1.36346 0.21355,-0.36919 0.67212,-1.0663 0.67212,-1.0663 0.38914,0.0749 1.19344,-0.10385 1.19344,-0.10385 0,0 0.30531,0.64579 0.56143,0.88224 0.37785,0.34883 0.86064,0.61401 1.36346,0.72184 0.40602,0.0871 1.24316,-0.0802 1.24316,-0.0802 0,0 0.44073,0.28917 0.52133,0.52133 0.075,0.21616 0.046,0.49089 -0.0802,0.68173 -0.11891,0.17977 -0.56142,0.32082 -0.56142,0.32082 0,0 -0.49946,0.30083 -0.68174,0.52132 -0.19045,0.23038 -0.29589,0.52224 -0.40102,0.80204 -0.11175,0.29744 -0.24061,0.92235 -0.24061,0.92235 0,0 -0.71376,0.58297 -0.96245,0.96244 -0.48029,0.73289 -0.73346,1.60042 -0.96244,2.44622 -0.20503,0.75732 -0.36092,2.32592 -0.36092,2.32592 0,0 -0.72816,0.13539 -1.00255,0.36091 -0.4215,0.34645 -0.63913,0.89714 -0.84214,1.40357 -0.15807,0.39432 -0.28072,1.24316 -0.28072,1.24316 0,0 -0.64138,0.27911 -0.88224,0.52133 -0.39282,0.39504 -0.61839,0.93346 -0.84214,1.44367 -0.14604,0.33301 -0.32082,1.04265 -0.32082,1.04265 0,0 -0.57497,0.14375 -0.80203,0.32081 -0.75487,0.58862 -1.25392,1.47089 -1.68429,2.32592 -0.11974,0.2379 -0.24061,0.76194 -0.24061,0.76194 0,0 -0.47919,0.0443 -0.68173,0.1604 -0.67266,0.38553 -1.23507,1.00243 -1.60408,1.68428 -0.11111,0.20532 -0.16041,0.68174 -0.16041,0.68174 0,0 -0.5672,-0.0503 -0.80204,0.0802 -0.38323,0.21306 -0.58026,0.6644 -0.80203,1.04265 -0.15448,0.26347 -0.36092,0.84214 -0.36092,0.84214 0,0 -0.94669,0.0119 -1.40357,0.12031 -0.3502,0.0831 -0.71943,0.17878 -1.06412,0.40717 0,0 1.23621,-1.48687 1.80995,-2.29072 z"
         inkscape:connector-curvature="0"
         sodipodi:nodetypes="ssscsssccsscsscsscsscsscsscsscsscsscscs" />
      <path
         id="path3061-4"
         style="font-size:40px;font-style:normal;font-variant:normal;font-weight:normal;font-stretch:normal;line-height:125%;letter-spacing:0px;word-spacing:0px;fill:#3a923a;fill-opacity:1;stroke:#307a30;stroke-width:0.0236633;stroke-miterlimit:4;stroke-opacity:1;font-family:Arial;-inkscape-font-specification:Arial"
         d="m 283.11075,289.86757 c -0.26726,-0.19604 -0.4545,-0.49324 -0.60724,-0.7874 -0.13226,-0.25472 -0.2332,-0.53617 -0.2552,-0.82233 -0.0198,-0.25723 0.0277,-0.52228 0.11342,-0.76562 0.10556,-0.29969 0.2733,-0.5828 0.48206,-0.82234 0.2609,-0.29936 0.60199,-0.52212 0.93576,-0.73726 0.50102,-0.32296 1.58796,-0.82234 1.58796,-0.82234 0,0 1.09614,-0.12513 1.61774,-0.29329 0.20924,-0.0675 0.40539,-0.17311 0.59548,-0.28357 0.21448,-0.12463 0.61067,-0.42534 0.61067,-0.42534 0,0 0.86595,-0.0636 1.27604,-0.19363 0.24175,-0.0767 0.46675,-0.20383 0.68055,-0.34028 0.18282,-0.11668 0.50899,-0.40529 0.50899,-0.40529 0,0 0.53534,-0.0162 0.78911,-0.0919 0.38483,-0.11477 0.75616,-0.298 1.07754,-0.53877 0.38501,-0.28845 0.98215,-1.0575 0.98215,-1.0575 0,0 0.89639,-0.77836 1.38947,-1.10589 0.43227,-0.28715 0.82708,-0.56404 1.36597,-0.747 0.90352,-0.30676 2.34364,-0.40525 3.52745,-0.49945 0.7219,-0.0574 1.45374,0.0517 2.17218,-0.0393 1.04507,-0.13237 2.04949,-0.48827 3.07423,-0.7324 1.02474,-0.24414 3.07423,-0.7324 3.07423,-0.7324 l 4.36119,-7.79185 -0.32082,-11.99049 c 0,0 -0.41536,-0.7427 -0.64163,-1.1028 -0.27912,-0.4442 -0.53474,-0.9103 -0.88224,-1.30331 -0.41732,-0.47197 -0.85439,-0.97319 -1.42362,-1.24317 -0.36138,-0.1714 -1.18301,-0.2005 -1.18301,-0.2005 0,0 -0.6595,-0.6606 -1.04265,-0.92235 -0.22955,-0.15681 -0.4653,-0.35297 -0.74189,-0.38097 -0.17264,-0.0174 -0.50127,0.14036 -0.50127,0.14036 0,0 -0.63969,-1.01933 -1.14291,-1.30332 -0.16556,-0.0933 -0.37572,-0.14095 -0.56142,-0.10025 -0.18293,0.04 -0.46118,0.32082 -0.46118,0.32082 0,0 -0.73174,-1.1877 -1.30331,-1.54393 -0.16371,-0.10206 -0.37106,-0.17146 -0.56143,-0.14036 -0.19578,0.032 -0.5595,0.18124 -0.5595,0.18124 0.72655,1.0182 2.06782,2.15925 2.47792,3.34728 0.37511,1.08666 0.35195,2.35438 0,3.44876 -0.46337,1.44085 -1.81341,2.42593 -2.64673,3.68938 -0.73966,1.12144 -2.0853,3.44877 -2.0853,3.44877 l -2.32591,4.41122 -2.56653,5.53407 -1.04265,2.72693 -2.24571,4.65183 c 0,0 -2.0051,0.52132 -2.32592,0.92234 -0.32081,0.40098 -0.88224,0.45488 -0.88224,0.45488 0,0 -0.80204,0.0664 -1.60408,0.42737 -0.80204,0.36091 -0.80204,0.36091 -0.80204,0.36091 -1.96499,0.56143 -1.76266,0.70654 -2.56652,1.20306 -0.2753,0.17005 -0.57829,0.3351 -0.76194,0.60153 -0.27833,0.40379 -0.35062,0.92157 -0.44112,1.40357 -0.1113,0.59252 -0.1766,1.20436 -0.1203,1.80459 0.0348,0.37122 0.13513,0.73949 0.28071,1.08275 0,0 0.34409,0.61519 0.60466,0.8422 0.4084,0.3558 0.93795,0.54827 1.43739,0.75791 0.57041,0.23943 1.25072,0.51797 1.76764,0.56543 0.54592,0.0501 1.10098,-0.11417 1.64418,-0.0401 0.31842,0.0434 0.60544,0.22731 0.92234,0.28071 0.68595,0.11559 1.39452,-0.002 2.0853,0.0802 0.27075,0.0321 0.53049,0.1361 0.80204,0.1604 0.70577,0.0632 1.43511,0.11989 2.12541,-0.0401 0.21555,-0.05 0.38674,-0.22754 0.60152,-0.28071 0.53264,-0.13186 1.11555,0.0669 1.64418,-0.0802 0.57044,-0.15869 1.00442,-0.64856 1.56398,-0.84214 0.58983,-0.20405 1.27249,-0.0716 1.84469,-0.32081 0.83092,-0.36193 1.36926,-1.21128 2.16551,-1.64418 0.4495,-0.24438 0.99927,-0.26778 1.44367,-0.52133 0.34637,-0.19763 0.55651,-0.6032 0.92234,-0.76194 0.3833,-0.16631 0.85445,-0.007 1.24316,-0.1604 0.59706,-0.23536 1.08257,-0.69846 1.56398,-1.12286 0.38314,-0.33776 0.64345,-0.80423 1.04265,-1.12285 0.45874,-0.36615 1.07369,-0.50562 1.52387,-0.88225 0.34919,-0.29213 0.51143,-0.77851 0.88225,-1.04265 0.36192,-0.25779 0.83679,-0.30146 1.24316,-0.48122 0.35535,-0.1572 0.71442,-0.31334 1.04265,-0.52133 0.40207,-0.25478 0.71794,-0.63199 1.12285,-0.88224 0.4527,-0.27978 1.00561,-0.37955 1.44367,-0.68173 0.41245,-0.28451 0.67553,-0.75073 1.08276,-1.04265 0.35471,-0.25428 0.80862,-0.34673 1.16295,-0.60153 0.48352,-0.34771 0.73125,-1.01963 1.28327,-1.24316 0.19823,-0.0803 0.43873,0.0676 0.64163,0 0.25363,-0.0845 0.4579,-0.28701 0.64163,-0.48123 0.19873,-0.21007 0.24615,-0.55341 0.48122,-0.72183 0.33738,-0.24172 0.83416,-0.13065 1.20306,-0.32082 0.44726,-0.23056 0.81576,-0.59823 1.16296,-0.96244 0.2767,-0.29027 0.42474,-0.6931 0.72183,-0.96245 0.32439,-0.29411 0.71414,-0.52465 1.12286,-0.68173 0.26674,-0.10252 0.58626,-0.0332 0.84214,-0.16041 0.5,-0.24861 0.75414,-0.85329 1.24316,-1.12286 0.30392,-0.16753 0.69067,-0.12851 1.00255,-0.28071 0.56704,-0.27673 0.95683,-0.84613 1.52387,-1.12285 0.31188,-0.15221 0.70958,-0.0947 1.00255,-0.28072 0.32803,-0.20829 0.43737,-0.66859 0.76194,-0.88224 0.22247,-0.14645 0.5372,-0.0977 0.76193,-0.24061 0.38317,-0.24369 0.54113,-0.75583 0.92235,-1.00255 0.39036,-0.25264 0.93439,-0.18635 1.32337,-0.44112 0.15044,-0.0985 0.20945,-0.30406 0.36091,-0.40102 0.34184,-0.21885 0.79776,-0.18379 1.16296,-0.36092 0.23353,-0.11327 0.40195,-0.34153 0.64163,-0.44112 0.40189,-0.167 0.8502,-0.19745 1.28326,-0.24062 1.99539,-0.19887 9.7653,-0.0802 9.7653,-0.0802 0,0 0.34915,-0.68338 0.48122,-1.04265 0.2059,-0.56012 0.36609,-1.13884 0.48123,-1.72439 0.15578,-0.79231 0.24233,-1.59955 0.28071,-2.40612 0.0604,-1.26874 0.0379,-2.54501 -0.0802,-3.80968 -0.0831,-0.89054 -0.23794,-1.7757 -0.44112,-2.64673 -0.16811,-0.7207 -0.36822,-1.43772 -0.64163,-2.1254 -0.19877,-0.49996 -0.43537,-0.98825 -0.72183,-1.44367 -0.36018,-0.57262 -1.24317,-1.60408 -1.24317,-1.60408 l -10e-6,-3e-5 c 0,0 -16.33842,-3.71496 -22.3974,-5.85489 -2.78541,-0.98376 -5.99174,-1.31694 -8.26101,-3.20816 -0.62698,-0.52253 -0.70291,-1.51143 -1.28326,-2.0853 -0.66508,-0.65765 -1.62392,-0.93083 -2.40612,-1.44367 -0.96163,-0.6305 -1.83884,-1.38487 -2.80713,-2.0051 -1.089,-0.69755 -0.48123,-1.60408 -3.36857,-1.92489 -2.88734,-0.32082 -2.96754,-0.80204 -3.44877,-0.80204 -0.48122,0 -0.48122,-0.48123 -1.44367,-0.88225 -0.96245,-0.40101 -0.64964,-0.24955 -0.96245,-0.40101 -0.49546,-0.23992 -1.00417,-0.47054 -1.44366,-0.80204 -0.40749,-0.30737 -0.27984,-0.59574 -0.62545,-0.97387 -0.3456,-0.37814 -1.16446,-0.84603 -1.54006,-1.19164 -0.67006,-0.61654 -1.22095,-1.47813 -2.0853,-1.76448 -0.40685,-0.13479 -0.8574,0.12845 -1.28327,0.0802 -0.74806,-0.0848 -1.42816,-0.79367 -2.1655,-0.64163 -0.61351,0.1265 -1.12337,0.66473 -1.44367,1.20306 -0.20911,0.35145 -0.038,0.84783 -0.24061,1.20305 -0.69416,1.21689 -3.12796,2.80714 -3.12796,2.80714 0,0 -0.32081,0.40102 -0.40101,1.28326 -0.0802,0.88225 0.24061,1.60408 0.24061,1.60408 0,0 0.54282,-1.4375 0.88224,-2.1254 0.17754,-0.35983 0.32286,-0.75396 0.60153,-1.04265 0.26275,-0.2722 0.59704,-0.50352 0.96244,-0.60153 0.37464,-0.10049 0.79642,-0.0868 1.16296,0.0401 0.87672,0.30346 2.24571,1.64418 2.24571,1.64418 0,0 0.55669,-0.0293 0.80204,0.0802 1.14051,0.50908 1.90069,1.62678 2.76703,2.52643 0.7895,0.81985 2.20561,2.60663 2.20561,2.60663 l 0,0 1.04266,2.2457 0.60152,0.56143 c 0,0 0.028,0.9119 0.20051,1.32337 0.18087,0.43148 0.50008,0.80367 0.84215,1.12285 0.19789,0.18466 0.68173,0.44112 0.68173,0.44112 0,0 -0.0447,0.54815 0.0401,0.80204 0.17384,0.52045 0.51529,0.99551 0.92235,1.36347 0.29282,0.2647 1.04265,0.56143 1.04265,0.56143 0,0 0.16742,0.7047 0.36091,1.00255 0.24207,0.37262 0.5748,0.70514 0.96245,0.92234 0.22911,0.12837 0.76194,0.20051 0.76194,0.20051 0,0 0.22827,0.85297 0.48122,1.20306 0.38893,0.53826 0.96172,0.92974 1.52388,1.28326 0.24817,0.15607 0.80203,0.36092 0.80203,0.36092 0,0 0.65965,0.73461 1.04266,1.04265 0.30917,0.24867 0.64882,0.46191 1.00254,0.64163 0.23016,0.11695 0.72184,0.28072 0.72184,0.28072 0,0 0.72207,0.65034 1.12286,0.92234 0.48021,0.32591 0.9619,0.69719 1.52387,0.84214 0.33654,0.0868 1.04265,0 1.04265,0 0,0 0.51386,0.66631 0.84214,0.92235 0.31126,0.24276 0.66345,0.45181 1.04265,0.56143 0.37329,0.1079 1.16296,0.0802 1.16296,0.0802 0,0 0.49763,0.53026 0.80204,0.72184 0.41598,0.26179 0.87715,0.49017 1.36346,0.56142 0.39877,0.0584 1.20306,-0.1203 1.20306,-0.1203 0,0 0.30531,0.64579 0.56143,0.88224 0.37785,0.34883 0.86064,0.61401 1.36347,0.72184 0.40602,0.0871 1.24316,-0.0802 1.24316,-0.0802 0,0 0.44073,0.28916 0.52132,0.52133 0.075,0.21615 0.046,0.49089 -0.0802,0.68173 -0.11891,0.17977 -0.56143,0.32081 -0.56143,0.32081 0,0 -0.49946,0.30084 -0.68173,0.52133 -0.19045,0.23037 -0.29589,0.52224 -0.40102,0.80204 -0.11176,0.29744 -0.24061,0.92235 -0.24061,0.92235 0,0 -0.71377,0.58297 -0.96245,0.96244 -0.48029,0.73289 -0.73346,1.60042 -0.96245,2.44622 -0.20503,0.75732 -0.36092,2.32592 -0.36092,2.32592 0,0 -0.72816,0.13539 -1.00254,0.36091 -0.42151,0.34645 -0.63913,0.89714 -0.84214,1.40357 -0.15807,0.39432 -0.28072,1.24316 -0.28072,1.24316 0,0 -0.64138,0.27911 -0.88224,0.52133 -0.39283,0.39504 -0.61839,0.93346 -0.84214,1.44367 -0.14604,0.33301 -0.32082,1.04265 -0.32082,1.04265 0,0 -0.57497,0.14375 -0.80204,0.32081 -0.75487,0.58862 -1.25391,1.47089 -1.68428,2.32592 -0.11975,0.2379 -0.24061,0.76193 -0.24061,0.76193 0,0 -0.47919,0.0443 -0.68173,0.16041 -0.67266,0.38553 -1.23507,1.00243 -1.60408,1.68428 -0.11112,0.20532 -0.16041,0.68174 -0.16041,0.68174 0,0 -0.56721,-0.0503 -0.80204,0.0802 -0.38324,0.21306 -0.58026,0.66439 -0.80204,1.04265 -0.15447,0.26347 -0.36092,0.84214 -0.36092,0.84214 0,0 -0.94668,0.0119 -1.40357,0.12031 -0.3502,0.0831 -0.71943,0.17878 -1.00254,0.40102 -0.27135,0.21301 -0.60153,0.84214 -0.60153,0.84214 0,0 -0.72429,0.35732 -1.04265,0.60153 -0.40499,0.31066 -0.77113,0.67851 -1.08276,1.08275 -0.22676,0.29415 -0.56142,0.96245 -0.56142,0.96245 0,0 -0.83003,0.69298 -1.20306,1.08275 -0.20355,0.21268 -0.56143,0.68174 -0.56143,0.68174 0,0 -0.86619,0.26607 -1.28326,0.44112 -0.44098,0.18508 -0.87088,0.39943 -1.28327,0.64163 -0.30691,0.18025 -0.88224,0.60153 -0.88224,0.60153 0,0 -0.59569,0.009 -0.88224,0.0802 -0.43606,0.1085 -0.87926,0.25772 -1.24316,0.52133 -0.21489,0.15565 -0.52133,0.60153 -0.52133,0.60153 0,0 -0.77507,-0.0406 -1.16296,-0.0401 -0.36116,4.8e-4 -0.72543,-0.0125 -1.08275,0.0401 -0.31435,0.0462 -0.89728,0.18046 -0.89728,0.18046 0,0 -1.0094,-0.17031 -1.50883,-0.21054 -0.55962,-0.0451 -1.68429,0.0301 -1.68429,0.0301 0,0 -1.43625,-0.25006 -2.13543,-0.45115 -0.56405,-0.16223 -1.1796,-0.25976 -1.65284,-0.6069 z"
         inkscape:connector-curvature="0"
         sodipodi:nodetypes="asccscccsccscccccscsscccsssccccccccccssscccccccsccscccaaccscccscscscccsscccssscscscssccccscccccsccscccscccsssccssscsssscsccccssccsccsscccsccccccccsccsccccccccccsccsccsccccccscsscsscsscscccscccccscsscscsscccccccccaa" />
      <path
         style="font-size:40px;font-style:normal;font-variant:normal;font-weight:normal;font-stretch:normal;line-height:125%;letter-spacing:0px;word-spacing:0px;fill:#afaf2a;fill-opacity:1;stroke:#80801f;stroke-width:0.11831648;stroke-linecap:butt;stroke-linejoin:miter;stroke-miterlimit:4;stroke-opacity:1;stroke-dasharray:none;font-family:Arial;-inkscape-font-specification:Arial"
         d="m 302.01746,239.11386 c -0.0858,-0.36457 -0.0974,-0.75275 -0.0401,-1.12286 0.0608,-0.39276 0.18849,-0.78701 0.40102,-1.12285 0.20218,-0.31949 0.4864,-0.59391 0.80204,-0.80204 0.30048,-0.19814 0.64782,-0.34004 1.00255,-0.40102 0.32961,-0.0567 0.6739,-0.0219 1.00255,0.0401 0.36139,0.0682 0.72561,0.17449 1.04265,0.36092 0.29377,0.17275 0.5373,0.42544 0.76193,0.68173 0.23461,0.26767 0.47797,0.54845 0.60153,0.88224 0.12607,0.34056 0.15248,0.72104 0.12031,1.08276 -0.0334,0.37494 -0.1409,0.7521 -0.32082,1.08275 -0.17671,0.32475 -0.44211,0.60037 -0.72183,0.84214 -0.22727,0.19643 -0.4794,0.3792 -0.76194,0.48122 -0.29162,0.1053 -0.61257,0.13338 -0.92234,0.12031 -0.31436,-0.0133 -0.62753,-0.0907 -0.92235,-0.20051 -0.3139,-0.11697 -0.59971,-0.30125 -0.88224,-0.48122 -0.26608,-0.1695 -0.56328,-0.31636 -0.76194,-0.56143 -0.20342,-0.25094 -0.32701,-0.5678 -0.40102,-0.88224 z"
         id="path3090-6"
         inkscape:connector-curvature="0"
         sodipodi:nodetypes="aaaaaaaaaaaaaaaaaa" />
      <path
         style="font-size:40px;font-style:normal;font-variant:normal;font-weight:normal;font-stretch:normal;line-height:125%;letter-spacing:0px;word-spacing:0px;fill:#000000;fill-opacity:1;stroke:none;font-family:Arial;-inkscape-font-specification:Arial"
         d="m 303.65736,240.27893 c 0,0 -0.0839,-0.91072 -0.0283,-1.3611 0.0396,-0.32088 0.0983,-0.65306 0.2552,-0.93576 0.16876,-0.30413 0.43291,-0.55399 0.70891,-0.76563 0.3221,-0.24698 1.07755,-0.56712 1.07755,-0.56712 0,0 0.10341,0.58377 0.11342,0.87904 0.0106,0.31232 0.0308,0.63577 -0.0567,0.93576 -0.0817,0.28027 -0.24743,0.53416 -0.42535,0.76563 -0.22406,0.29149 -0.47948,0.57518 -0.79398,0.76562 -0.25567,0.15482 -0.85069,0.28356 -0.85069,0.28356 z"
         id="path3146-6"
         inkscape:connector-curvature="0"
         sodipodi:nodetypes="caaacaaaac" />
      <path
         style="font-size:40px;font-style:normal;font-variant:normal;font-weight:normal;font-stretch:normal;line-height:125%;letter-spacing:0px;word-spacing:0px;fill:#000000;fill-opacity:1;stroke:none;font-family:Arial;-inkscape-font-specification:Arial"
         d="m 293.51585,231.03331 c -0.0693,-0.14928 -0.11866,-0.31687 -0.11028,-0.48122 0.01,-0.19737 0.0801,-0.39752 0.19048,-0.56143 0.10854,-0.16114 0.26524,-0.29843 0.44112,-0.38097 0.18402,-0.0864 0.39879,-0.11506 0.60153,-0.10025 0.19605,0.0143 0.39994,0.0684 0.56143,0.18045 0.13291,0.0923 0.23867,0.23157 0.30076,0.38097 0.0646,0.15541 0.0743,0.33359 0.0602,0.50128 -0.0159,0.18754 -0.0487,0.3899 -0.16041,0.54138 -0.11442,0.15515 -0.30045,0.25381 -0.48122,0.32081 -0.15469,0.0573 -0.32688,0.0742 -0.49125,0.0602 -0.25387,-0.0217 -0.52303,-0.0746 -0.73187,-0.22056 -0.0822,-0.0574 -0.13826,-0.14967 -0.18045,-0.24061 z"
         id="path4198-4"
         inkscape:connector-curvature="0"
         sodipodi:nodetypes="aaaaaaaaaaaaa" />
      <path
         style="font-size:40px;font-style:normal;font-variant:normal;font-weight:normal;font-stretch:normal;line-height:125%;letter-spacing:0px;word-spacing:0px;fill:#000000;fill-opacity:1;stroke:none;font-family:Arial;-inkscape-font-specification:Arial"
         d="m 294.91942,233.65999 c 0.0752,-0.17345 0.22221,-0.33967 0.40101,-0.40102 0.20388,-0.07 0.44307,-0.004 0.64163,0.0802 0.15771,0.0666 0.30311,0.1804 0.40102,0.32082 0.0967,0.13869 0.16744,0.31228 0.16041,0.48122 -0.008,0.20343 -0.0825,0.43314 -0.24061,0.56143 -0.15879,0.12884 -0.39846,0.14428 -0.60153,0.12031 -0.19007,-0.0224 -0.36927,-0.12439 -0.52132,-0.24062 -0.10743,-0.0821 -0.21653,-0.18298 -0.26067,-0.31079 -0.0666,-0.19278 -0.0611,-0.42442 0.0201,-0.61155 z"
         id="path4196-3"
         inkscape:connector-curvature="0"
         sodipodi:nodetypes="aaaaaaaaaa" />
    </g>
  </g>
</svg>
