<?xml version="1.0" encoding="UTF-8" standalone="no"?>
<!-- Created with Inkscape (http://www.inkscape.org/) -->

<svg
   xmlns:dc="http://purl.org/dc/elements/1.1/"
   xmlns:cc="http://creativecommons.org/ns#"
   xmlns:rdf="http://www.w3.org/1999/02/22-rdf-syntax-ns#"
   xmlns:svg="http://www.w3.org/2000/svg"
   xmlns="http://www.w3.org/2000/svg"
   xmlns:sodipodi="http://sodipodi.sourceforge.net/DTD/sodipodi-0.dtd"
   xmlns:inkscape="http://www.inkscape.org/namespaces/inkscape"
   width="205.31973"
   height="83.598694"
   id="svg2"
   version="1.1"
   inkscape:version="0.48.2 r9819"
   sodipodi:docname="logo.svg">
  <defs
     id="defs4" />
  <sodipodi:namedview
     id="base"
     pagecolor="#ffffff"
     bordercolor="#666666"
     borderopacity="1.0"
     inkscape:pageopacity="0.0"
     inkscape:pageshadow="2"
     inkscape:zoom="2.8284271"
     inkscape:cx="112.79699"
     inkscape:cy="44.685109"
     inkscape:document-units="px"
     inkscape:current-layer="text2985-3"
     showgrid="false"
     inkscape:window-width="1366"
     inkscape:window-height="744"
     inkscape:window-x="0"
     inkscape:window-y="24"
     inkscape:window-maximized="1"
     fit-margin-top="1"
     fit-margin-left="1"
     fit-margin-right="1"
     fit-margin-bottom="1" />
  <metadata
     id="metadata7">
    <rdf:RDF>
      <cc:Work
         rdf:about="">
        <dc:format>image/svg+xml</dc:format>
        <dc:type
           rdf:resource="http://purl.org/dc/dcmitype/StillImage" />
        <dc:title />
      </cc:Work>
    </rdf:RDF>
  </metadata>
  <g
     inkscape:label="Layer 1"
     inkscape:groupmode="layer"
     id="layer1"
     transform="translate(-268.93589,-225.20832)">
    <g
       style="font-size:40px;font-style:normal;font-variant:normal;font-weight:normal;font-stretch:normal;line-height:125%;letter-spacing:0px;word-spacing:0px;fill:none;stroke:#000000;stroke-width:0.1;stroke-miterlimit:4;stroke-opacity:1;font-family:Arial;-inkscape-font-specification:Arial"
       id="text2985-3">
      <g
         id="g4522"
         transform="matrix(0.36229479,0,0,0.36229479,279.63417,117.88297)">
        <g
           id="g5051"
           transform="matrix(0.65315033,0,0,0.65315033,-37.967431,146.38444)">
          <path
             style="font-size:40px;font-style:normal;font-variant:normal;font-weight:normal;font-stretch:normal;line-height:125%;letter-spacing:0px;word-spacing:0px;opacity:0.51028807;fill:none;stroke:#000000;stroke-width:1px;stroke-linecap:butt;stroke-linejoin:miter;stroke-miterlimit:4;stroke-opacity:1;font-family:Arial;-inkscape-font-specification:Arial"
             d="m 45.569874,546.80494 3.23548,-8.14863 4.19414,-8.98745 4.43381,-7.78912 5.87181,-6.9503 8.38829,-8.50812 6.231299,-4.79331 7.90895,-3.95448 -6.71063,5.03298 -5.991629,5.03297 -6.11147,6.2313 -7.78913,9.10728 -4.67347,8.26846 -4.31398,8.86762 z"
             id="path4284-5"
             inkscape:connector-curvature="0" />
          <path
             id="path4050-0-8"
             style="font-size:40px;font-style:normal;font-variant:normal;font-weight:normal;font-stretch:normal;line-height:125%;letter-spacing:0px;word-spacing:0px;fill:#388a38;fill-opacity:1;stroke:#307a30;stroke-width:0.1;stroke-miterlimit:4;stroke-opacity:1;font-family:Arial;-inkscape-font-specification:Arial"
             d="m 65.952304,502.23494 c -0.6152,-1.45059 -1.03909,-3.00691 -1.18628,-4.57567 -0.23799,-2.53654 0.0384,-5.12215 0.50841,-7.6261 0.38233,-2.03692 0.68795,-4.22504 1.86416,-5.93142 0.77609,-1.1259 2.05648,-1.82341 3.21991,-2.54203 3.39705,-2.09826 2.54203,-2.71151 10.846009,-5.08407 0,0 0,0 3.38938,-1.52522 3.38939,-1.52523 6.77877,-1.80601 6.77877,-1.80601 0,0 2.37256,-0.22763 3.72831,-1.92232 1.35575,-1.69469 9.829207,-3.89778 9.829207,-3.89778 l 9.49026,-19.65841 4.4062,-11.52389 10.84602,-23.38673 9.8292,-18.64159 c 0,0 5.68663,-9.83519 8.81239,-14.57434 3.52159,-5.33929 9.22676,-9.50221 11.18495,-15.59115 1.48733,-4.62483 1.5852,-9.98212 0,-14.57433 -1.73306,-5.02053 -7.40118,-9.84257 -10.47158,-14.14544 0,0 1.53709,-0.63054 2.36445,-0.76589 0.8045,-0.13162 1.68073,0.16196 2.37256,0.59314 2.41542,1.50542 5.50774,6.52456 5.50774,6.52456 0,0 1.17585,-1.1865 1.9489,-1.35575 0.78478,-0.17183 1.67292,0.0288 2.37256,0.42367 2.12656,1.20012 4.82987,5.50774 4.82987,5.50774 0,0 1.3888,-0.66685 2.11836,-0.59314 1.16885,0.1181 2.16513,0.94727 3.13518,1.60996 1.61918,1.10613 4.4062,3.89779 4.4062,3.89779 0,0 3.47218,0.12303 4.99933,0.84734 2.40553,1.1409 4.2526,3.25902 6.01615,5.25354 1.46854,1.66086 2.54879,3.63057 3.72832,5.50774 0.95622,1.52179 2.71151,4.6604 2.71151,4.6604 l 1.35575,50.67124 -18.43017,32.928 c 0,0 -8.66105,2.06339 -12.99157,3.09509 -4.33052,1.03169 -8.57513,2.5357 -12.99157,3.09509 -3.03608,0.38454 -6.12881,-0.0765 -9.17951,0.16615 -5.00272,0.39794 -11.08863,0.81433 -14.90686,2.11068 -2.27729,0.77317 -3.94574,1.94328 -5.77253,3.15676 -2.08372,1.38414 -5.8718,4.67348 -5.8718,4.67348 0,0 -2.52349,3.24994 -4.15053,4.46891 -1.35816,1.01752 -2.92737,1.79183 -4.55364,2.27682 -1.07243,0.31982 -3.33476,0.38857 -3.33476,0.38857 0,0 -1.37838,1.21968 -2.15097,1.71277 -0.90348,0.57663 -1.85432,1.11396 -2.875977,1.43799 -1.733,0.54963 -5.39247,0.81827 -5.39247,0.81827 0,0 -1.67426,1.27078 -2.58066,1.79749 -0.8033,0.4668 -1.63223,0.91323 -2.51649,1.19833 -2.20425,0.71066 -6.83648,1.23944 -6.83648,1.23944 0,0 -4.59337,2.11036 -6.71064,3.47515 -1.410489,0.9092 -2.851909,1.85055 -3.954469,3.11565 -0.88221,1.01227 -1.59108,2.20867 -2.03716,3.47515 -0.3622,1.02834 -0.56312,2.14844 -0.47934,3.23548 0.0932,1.2093 0.51957,2.39872 1.0785,3.47515 0.64547,1.24309 2.56613,3.32749 2.56613,3.32749 l -4.31398,3.11565 z"
             inkscape:connector-curvature="0"
             sodipodi:nodetypes="csssscscscccccsssccsccccsscssscccaaasacaacaacaacaaaaaccc" />
          <path
             id="path3192-3"
             style="font-size:40px;font-style:normal;font-variant:normal;font-weight:normal;font-stretch:normal;line-height:125%;letter-spacing:0px;word-spacing:0px;fill:#cccccc;fill-opacity:1;stroke:#b4b4b4;stroke-width:0.5;stroke-linecap:butt;stroke-linejoin:miter;stroke-miterlimit:4;stroke-opacity:1;stroke-dasharray:none;font-family:Arial;-inkscape-font-specification:Arial"
             d="m 82.677153,254.18578 c -1.17763,1.21998 -2.08832,3.35163 -2.83861,4.87223 -1.43437,2.90703 -3.80795,9.5198 -3.80795,9.5198 0,0 -5.558929,16.72649 -7.027849,25.11094 -1.09459,6.24781 -3.02216,12.62072 -1.35575,18.74087 2.19825,8.07342 14.235399,20.67522 14.235399,20.67522 0,0 -2.5562,-5.74295 -2.7115,-8.81239 -0.14555,-2.87674 0.27822,-5.96538 1.69469,-8.47345 1.73036,-3.06386 4.96071,-5.03324 7.79557,-7.1177 3.79355,-2.78938 12.920767,-7.59703 12.920767,-7.59703 0,0 0.9552,-4.48043 1.62747,-6.66701 0.83946,-2.73036 1.93977,-5.37467 2.99582,-8.02879 0.8338,-2.09555 2.63632,-6.2313 2.63632,-6.2313 0,0 -2.61685,-1.33982 -3.83464,-2.15699 -1.01531,-0.6813 -1.99927,-1.42453 -2.87599,-2.27682 -1.15882,-1.12651 -2.173027,-2.40204 -3.115647,-3.71481 -1.11878,-1.55809 -2.15822,-3.18753 -2.99581,-4.91314 -0.80026,-1.6487 -1.46639,-3.3765 -1.91733,-5.15281 -0.48532,-1.91177 -0.83156,-5.85851 -0.83156,-5.85851 0,0 -2.93171,-1.12875 -4.46514,-1.43122 -2.01045,-0.39656 -6.12826,-0.48709 -6.12826,-0.48709 z"
             inkscape:connector-curvature="0"
             sodipodi:nodetypes="cscsscssscaacaaaaacac" />
          <path
             style="font-size:40px;font-style:normal;font-variant:normal;font-weight:normal;font-stretch:normal;line-height:125%;letter-spacing:0px;word-spacing:0px;fill:#ff5555;fill-opacity:1;stroke:#ff0d0d;stroke-width:0.5;stroke-linecap:butt;stroke-linejoin:miter;stroke-miterlimit:4;stroke-opacity:1;stroke-dasharray:none;font-family:Arial;-inkscape-font-specification:Arial"
             d="m 108.91374,280.25803 c 0,0 -2.61685,-1.33982 -3.83464,-2.15699 -1.01531,-0.6813 -1.99927,-1.42454 -2.87599,-2.27682 -1.15882,-1.12652 -2.17303,-2.40204 -3.115647,-3.71481 -1.11878,-1.5581 -2.15822,-3.18753 -2.99581,-4.91314 -0.80026,-1.6487 -1.43543,-3.38465 -1.91733,-5.15281 -0.48006,-1.76143 -1.00103,-5.94325 -1.00103,-5.94325 0,0 4.06326,2.19701 5.95453,3.51413 3.081337,2.14591 6.235067,4.54772 8.734487,7.11374 1.00683,1.03367 1.98788,1.63055 2.89654,2.53705 0.79337,0.79148 2.22117,2.52375 2.22117,2.52375 z"
             id="path3236-3"
             inkscape:connector-curvature="0"
             sodipodi:nodetypes="cssssscasacc" />
          <path
             id="path4050-9"
             style="font-size:40px;font-style:normal;font-variant:normal;font-weight:normal;font-stretch:normal;line-height:125%;letter-spacing:0px;word-spacing:0px;fill:#dcdcdc;fill-opacity:1;stroke:#b9b9b9;stroke-width:0.5;stroke-linecap:butt;stroke-linejoin:miter;stroke-miterlimit:4;stroke-opacity:1;stroke-dasharray:none;font-family:Arial;-inkscape-font-specification:Arial"
             d="m 101.16453,301.6779 c -0.50928,3.45306 -0.60092,6.96067 -0.65654,10.45064 -0.0924,5.7959 -0.534817,11.68489 0.53671,17.38163 0.68698,3.65227 1.84714,7.30207 3.72832,10.50709 3.12037,5.31627 12.20177,13.89646 12.20177,13.89646 0,0 -4.78755,-10.59907 -5.76195,-16.26903 -0.49752,-2.89502 -0.83196,-5.99521 0,-8.8124 0.64792,-2.19399 2.09001,-4.16529 3.72832,-5.76194 1.70681,-1.66341 3.76966,-3.23284 6.10089,-3.72832 2.56328,-0.5448 5.32352,0.14723 7.79557,1.01681 2.86969,1.00945 5.6683,2.57054 7.79558,4.74513 1.73452,1.77309 3.72832,6.43983 3.72832,6.43983 0,0 3.38938,-3.05044 6.43982,1.01681 l 2.86866,3.42521 c 0,0 1.29101,-1.2204 2.11837,-1.35575 0.8045,-0.13162 1.68073,0.16196 2.37256,0.59314 2.41542,1.50542 5.50774,6.52456 5.50774,6.52456 0,0 1.17585,-1.1865 1.9489,-1.35575 0.78478,-0.17183 1.67292,0.0288 2.37256,0.42367 2.12656,1.20012 4.82987,5.50774 4.82987,5.50774 0,0 1.3888,-0.66685 2.11836,-0.59314 1.16885,0.1181 2.16513,0.94727 3.13518,1.60996 1.61918,1.10613 4.4062,3.89779 4.4062,3.89779 0,0 3.47218,0.12303 4.99933,0.84734 2.40553,1.1409 4.2526,3.25902 6.01615,5.25354 1.46854,1.66086 2.54879,3.63057 3.72832,5.50774 0.95622,1.52179 2.71151,4.6604 2.71151,4.6604 l 1.35575,50.67124 c 0,0 4.24971,-9.4615 6.35082,-14.32439 1.97487,-4.57072 5.85095,-13.97694 5.85095,-13.97694 0,0 1.01492,-6.9407 1.86415,-10.3376 0.42461,-1.69845 0.89134,-3.4029 1.60997,-4.99934 0.66012,-1.46649 1.58948,-2.798 2.45729,-4.15199 0.96393,-1.50397 2.97931,-4.70526 2.97931,-4.70526 -2.1263,-0.60015 -4.07515,-1.56528 -5.83309,-2.67162 -1.28643,-0.8096 -3.38938,-3.05045 -3.38938,-3.05045 0,0 -3.3371,0.11708 -4.9146,-0.33893 -1.60251,-0.46324 -3.09084,-1.34668 -4.4062,-2.37257 -1.38731,-1.082 -3.55884,-3.89779 -3.55884,-3.89779 0,0 -2.98401,0.36683 -4.4062,0 -2.37486,-0.61254 -4.41046,-2.18157 -6.43982,-3.55884 -1.6937,-1.14946 -4.74514,-3.89779 -4.74514,-3.89779 0,0 -2.07779,-0.69208 -3.05044,-1.18628 -1.49482,-0.75951 -2.93018,-1.66065 -4.23672,-2.7115 -1.61855,-1.30179 -4.4062,-4.4062 -4.4062,-4.4062 0,0 -2.34061,-0.86568 -3.38938,-1.52522 -2.37564,-1.49396 -4.79623,-3.14834 -6.43982,-5.42303 -1.06898,-1.47945 -2.03363,-5.08407 -2.03363,-5.08407 0,0 -2.25169,-0.30484 -3.21991,-0.84734 -1.63818,-0.91789 -3.04429,-2.32309 -4.06726,-3.89779 -0.81768,-1.25869 -1.52522,-4.23673 -1.52522,-4.23673 0,0 -3.16872,-1.25396 -4.40619,-2.37256 -1.7202,-1.55496 -3.16317,-3.56256 -3.89779,-5.76195 -0.35837,-1.07294 -0.16947,-3.38938 -0.16947,-3.38938 0,0 -2.04467,-1.08381 -2.88097,-1.86416 -1.44557,-1.34885 -2.7945,-2.92172 -3.55885,-4.74513 -0.7289,-1.73885 -0.84735,-5.59248 -0.84735,-5.59248 l -2.54203,-2.37257 -4.4062,-9.49026 0,0 c 0,0 -5.98441,-7.55083 -9.3208,-11.01549 -3.66112,-3.80188 -6.87362,-8.52521 -11.69336,-10.67655 -1.03683,-0.4628 -3.38938,-0.33894 -3.38938,-0.33894 0,0 -5.785277,-5.66583 -9.490257,-6.94823 -1.54901,-0.53615 -3.3314,-0.59414 -4.91461,-0.16947 -1.54418,0.41421 -2.95689,1.39175 -4.06725,2.54204 0,0 3.10718,-0.0857 4.63455,0.15148 1.88679,0.29298 3.75751,0.80515 5.5123,1.55782 2.30426,0.98835 4.39962,2.42186 6.47097,3.83465 2.468777,1.68386 4.798327,3.57087 7.070127,5.5123 1.28905,1.1016 2.50862,2.2834 3.71481,3.47515 0.94454,0.93323 2.75615,2.87598 2.75615,2.87598 0,0 -4.44103,9.56528 -6.5908,14.37993 -0.81688,1.8295 -1.70286,3.63267 -2.39665,5.5123 -0.70879,1.92029 -1.26416,3.89558 -1.79749,5.8718 -0.36796,1.36345 -0.76031,2.72788 -0.96637,4.12499 z"
             inkscape:connector-curvature="0"
             sodipodi:nodetypes="aaascssssssccccsccccsscsssccscssscscsscsscsscsscsscsscssccccsscsscaaaaacaaaa" />
          <path
             style="font-size:40px;font-style:normal;font-variant:normal;font-weight:normal;font-stretch:normal;line-height:125%;letter-spacing:0px;word-spacing:0px;fill:#327c32;fill-opacity:1;stroke:none;font-family:Arial;-inkscape-font-specification:Arial"
             d="m 149.51294,335.75213 c 0,0 1.15579,-1.13895 1.98315,-1.2743 0.8045,-0.13162 1.68073,0.16196 2.37256,0.59314 2.41542,1.50542 5.50774,6.52456 5.50774,6.52456 0,0 1.17585,-1.1865 1.9489,-1.35575 0.78478,-0.17183 1.67292,0.0288 2.37256,0.42367 2.12656,1.20012 4.82987,5.50774 4.82987,5.50774 0,0 1.3888,-0.66685 2.11836,-0.59314 1.16885,0.1181 2.16513,0.94727 3.13518,1.60996 1.61918,1.10613 4.4062,3.89779 4.4062,3.89779 0,0 3.47218,0.12303 4.99933,0.84734 2.40553,1.1409 4.2526,3.25902 6.01615,5.25354 1.46854,1.66086 2.54879,3.63057 3.72832,5.50774 0.95622,1.52179 2.71151,4.6604 2.71151,4.6604 l 1.35575,50.67124 -19.02331,33.60588 c 0,0 -7.72897,2.06339 -12.05949,3.09509 -4.33052,1.03169 -8.91407,1.85782 -13.33051,2.41721 -3.03608,0.38454 -8.88496,0.16315 -11.93566,0.40582 -2.50136,0.19897 -5.27352,0.40255 -7.89762,0.71843 l 4.25029,-5.65205 6.11146,-6.2313 9.58662,-8.02879 8.26846,-6.2313 8.62795,-6.11147 7.07013,-3.95448 5.39247,-6.35113 3.35532,-9.82628 1.19832,-9.58662 -1.67766,-9.82628 -3.40511,-16.41969 -3.55885,-9.65974 -3.89779,-5.76194 -5.08407,-4.06726 -5.25354,-3.55885 -5.59248,-3.89779 z"
             id="path4238-2"
             inkscape:connector-curvature="0"
             sodipodi:nodetypes="ccsccccsscssscccssscccccccccccccccccc" />
          <path
             style="font-size:40px;font-style:normal;font-variant:normal;font-weight:normal;font-stretch:normal;line-height:125%;letter-spacing:0px;word-spacing:0px;fill:#ff3b3b;fill-opacity:1;stroke:#c62c2c;stroke-width:0.1;stroke-miterlimit:4;stroke-opacity:1;font-family:Arial;-inkscape-font-specification:Arial"
             d="m 101.53174,475.5644 c 0,0 -2.409477,1.20982 -3.834647,1.49791 -1.24571,0.25182 -3.78501,1.05191 -3.78501,1.05191 l -1.83383,0.72502 c 0,0 -2.04392,1.07824 -3.38917,1.57839 -1.96429,0.7303 -5.24356,1.43072 -5.24356,1.43072 l -2.38461,0.69844 c 0,0 -3.75746,1.81467 -5.53287,2.90381 -1.294279,0.79397 -3.714809,2.63632 -3.714809,2.63632 l -1.43799,2.75615 c 0,0 -1.09366,1.92817 -1.31816,2.99582 -0.20549,0.97723 -0.20334,2.01813 0,2.99581 0.20399,0.98081 0.68117,1.89817 1.19832,2.75616 0.66016,1.09527 1.37062,2.23249 2.39666,2.99581 2.17292,1.61654 4.928509,2.3044 7.535639,3.03765 1.32312,0.37212 2.71804,0.41572 4.06726,0.67787 1.53374,0.29801 4.57566,1.01682 4.57566,1.01682 0,0 3.10285,-0.33204 4.6604,-0.33894 1.33019,-0.006 2.65938,0.11727 3.98252,0.2542 1.63199,0.1689 4.872227,0.69906 4.872227,0.69906 0,0 -0.23616,-3.40655 0.21184,-5.02052 0.18931,-0.68202 0.52833,-1.35192 1.01682,-1.86415 1.04972,-1.10074 2.62904,-1.53363 3.89778,-2.37257 0.62355,-0.41232 1.20861,-0.88032 1.82304,-1.30611 2.19324,-1.51986 4.40622,-3.01227 6.65041,-4.45584 0.59578,-0.38323 1.21574,-0.72821 1.80851,-1.11608 3.3543,-2.19486 6.44071,-4.79797 9.88486,-6.84896 0.56917,-0.33894 1.18022,-0.60208 1.7734,-0.89699 7.68663,-3.82146 15.6943,-7.03031 23.13854,-11.30478 4.41574,-2.53551 8.55345,-5.5325 12.71018,-8.47345 2.99746,-2.12075 6.30588,-3.92607 8.81239,-6.6093 1.70065,-1.82056 4.06726,-6.27035 4.06726,-6.27035 0,0 -15.57053,4.34987 -23.5562,5.42301 -3.67254,0.49353 -7.40978,0.21156 -11.10737,0.45445 -3.60328,0.2367 -7.20828,0.50984 -10.78899,0.97688 -1.64746,0.21488 -3.36552,0.23453 -4.91314,0.83883 -1.64097,0.64075 -2.98935,1.86759 -4.43381,2.87599 -1.80139,1.25758 -3.63638,2.48847 -5.27264,3.95448 -1.30494,1.16916 -2.29494,2.66003 -3.59498,3.83464 -1.41676,1.28008 -2.77995,2.76815 -4.55364,3.47515 -1.04489,0.4165 -2.24801,0.16165 -3.35532,0.3595 -0.56999,0.10181 -1.03716,-0.1267 -1.73332,0.11381 -0.65495,0.22628 -1.74183,1.01432 -1.74183,1.01432 z"
             id="path4124-5"
             inkscape:connector-curvature="0"
             sodipodi:nodetypes="cccccccaccaasaaacaacaaaaaaaaaascaaaacccacccc" />
          <path
             id="path4189-7"
             style="font-size:40px;font-style:normal;font-variant:normal;font-weight:normal;font-stretch:normal;line-height:125%;letter-spacing:0px;word-spacing:0px;fill:#ff5555;fill-opacity:1;stroke:#ff2b2b;stroke-width:0.1;stroke-miterlimit:4;stroke-opacity:1;font-family:Arial;-inkscape-font-specification:Arial"
             d="m 129.65082,483.61095 c 0,0 3.69889,-1.47298 8.55299,-3.76486 4.85411,-2.29189 10.68368,-5.04319 14.4058,-7.18042 4.41574,-2.53551 8.55345,-5.5325 12.71018,-8.47345 2.99746,-2.12075 6.20058,-4.357 8.58726,-6.32124 l -4.38783,6.58107 -6.71192,8.36415 c -1.14672,0.90017 -2.54204,3.55885 -2.54204,3.55885 0,0 -3.06079,1.51001 -4.40619,2.54203 -1.71147,1.31282 -3.25875,2.86736 -4.57567,4.57567 -0.95827,1.24307 -2.37256,4.06725 -2.37256,4.06725 0,0 -3.50765,2.9285 -5.08407,4.57567 -0.86017,0.89877 -2.37257,2.88097 -2.37257,2.88097 0,0 -3.66046,1.12442 -5.42301,1.86416 -1.86356,0.78213 -3.6803,1.688 -5.42301,2.7115 -1.29701,0.76174 -3.72832,2.54204 -3.72832,2.54204 0,0 -2.51735,0.0376 -3.72832,0.33894 -1.84274,0.45851 -3.71569,1.08912 -5.25354,2.20309 -0.90808,0.65778 -2.20309,2.54204 -2.20309,2.54204 0,0 -3.27543,-0.17156 -4.91461,-0.16947 -1.52626,0.002 -3.06565,-0.0527 -4.57566,0.16947 -1.32844,0.19548 -3.85777,0.7618 -3.85777,0.7618 0,0 -0.24379,-3.4585 0.21645,-5.14906 0.18593,-0.68296 0.58129,-1.35192 1.06978,-1.86415 1.04972,-1.10074 3.81305,-2.66914 3.81305,-2.66914 l 1.90777,-1.00954 5.83941,-3.89905 3.03889,-2.03237 7.17409,-5.1713 z"
             inkscape:connector-curvature="0"
             sodipodi:nodetypes="csssccccsscscssccsccccsscccccc" />
          <path
             id="path4098-4"
             style="font-size:40px;font-style:normal;font-variant:normal;font-weight:normal;font-stretch:normal;line-height:125%;letter-spacing:0px;word-spacing:0px;fill:#e6e6e6;stroke:#b8b8b8;stroke-width:0.5;stroke-linecap:butt;stroke-linejoin:miter;stroke-miterlimit:4;stroke-opacity:1;stroke-dasharray:none;font-family:Arial;-inkscape-font-specification:Arial"
             d="m 170.19587,463.40138 c 5.84691,-8.19186 10.88728,-16.9387 15.93775,-25.6442 3.96416,-6.83303 7.7624,-13.76981 11.26428,-20.85089 4.31136,-8.71793 11.98326,-26.60286 11.98326,-26.60286 0,0 0.99663,-6.17747 1.63663,-9.23885 0.34486,-1.64959 0.58966,-3.3385 1.18628,-4.9146 0.76937,-2.03245 1.96231,-3.88078 3.05044,-5.76194 0.90245,-1.56017 2.84033,-4.50614 2.84033,-4.50614 1.6445,0.31642 5.04342,-0.43886 5.04342,-0.43886 0,0 1.29022,2.72909 2.37257,3.72831 1.59678,1.47414 3.63704,2.5948 5.76194,3.05045 1.71582,0.36793 5.25354,-0.33894 5.25354,-0.33894 0,0 1.8625,1.22199 2.2031,2.2031 0.31712,0.91347 0.19451,2.07448 -0.33894,2.88097 -0.50251,0.75971 -2.37256,1.35575 -2.37256,1.35575 0,0 -2.1107,1.27133 -2.88098,2.2031 -0.80482,0.97355 -1.25041,2.20694 -1.69469,3.38938 -0.47228,1.25695 -1.01681,3.89779 -1.01681,3.89779 0,0 -3.01633,2.46361 -4.06726,4.06725 -2.0297,3.09716 -3.09958,6.7633 -4.06726,10.33761 -0.86645,3.2004 -1.52522,9.82921 -1.52522,9.82921 0,0 -3.07717,0.57216 -4.23672,1.52522 -1.78126,1.46406 -2.70093,3.79125 -3.55885,5.93142 -0.66799,1.66637 -1.18629,5.25354 -1.18629,5.25354 0,0 -2.71046,1.17949 -3.72831,2.20309 -1.66007,1.66945 -2.61329,3.94477 -3.55885,6.10089 -0.61717,1.4073 -1.35576,4.40619 -1.35576,4.40619 0,0 -2.4298,0.6075 -3.38938,1.35575 -3.19004,2.48748 -5.29899,6.21588 -7.1177,9.82921 -0.50604,1.00538 -1.01681,3.21991 -1.01681,3.21991 0,0 -2.02504,0.18731 -2.88097,0.67788 -2.84261,1.62922 -5.21933,4.2362 -6.77876,7.11769 -0.46956,0.86764 -0.67788,2.88098 -0.67788,2.88098 0,0 -2.39699,-0.21276 -3.38938,0.33894 -1.61955,0.90036 -2.45216,2.80769 -3.38938,4.40619 -0.65279,1.11338 -1.52522,3.55885 -1.52522,3.55885 0,0 -4.00066,0.0502 -5.93142,0.50841 -1.47993,0.35121 -3.04029,0.7555 -4.49691,1.72067 0,0 5.22416,-6.28344 7.64877,-9.68047 z"
             inkscape:connector-curvature="0"
             sodipodi:nodetypes="ssscsssccsscsscsscsscsscsscsscsscsscscs" />
          <path
             id="path3061-4"
             style="font-size:40px;font-style:normal;font-variant:normal;font-weight:normal;font-stretch:normal;line-height:125%;letter-spacing:0px;word-spacing:0px;fill:#3a923a;fill-opacity:1;stroke:#307a30;stroke-width:0.1;stroke-miterlimit:4;stroke-opacity:1;font-family:Arial;-inkscape-font-specification:Arial"
             d="m 315.91911,334.79954 c 0,0 -53.19811,-15.69923 -78.80309,-24.74249 -11.771,-4.15732 -25.32082,-5.56531 -34.91062,-13.55752 -2.64958,-2.20818 -2.97046,-6.38724 -5.42301,-8.81239 -2.81061,-2.77921 -6.86261,-3.93363 -10.16814,-6.10089 -4.06383,-2.66444 -7.77088,-5.85238 -11.86283,-8.47345 -4.60206,-2.94781 -2.03363,-6.77876 -14.2354,-8.13451 -12.20177,-1.35575 -12.54071,-3.38938 -14.57434,-3.38938 -2.03363,0 -2.03363,-2.03363 -6.10088,-3.72832 -4.06726,-1.69469 -2.74535,-1.05459 -4.06726,-1.69469 -2.09383,-1.01388 -4.24361,-1.98844 -6.10088,-3.38938 -1.72203,-1.29893 -1.18259,-2.51756 -2.64309,-4.11553 -1.4605,-1.59797 -4.92095,-3.57528 -6.50824,-5.0358 -2.83163,-2.60547 -5.15969,-6.2465 -8.81239,-7.45663 -1.7193,-0.56961 -3.62333,0.54284 -5.42301,0.33893 -3.1613,-0.35817 -6.03535,-3.35399 -9.151327,-2.7115 -2.59265,0.53458 -4.7473,2.80911 -6.10088,5.08407 -0.8837,1.48524 -0.16049,3.58289 -1.01682,5.08407 -2.93348,5.14252 -13.21858,11.86283 -13.21858,11.86283 0,0 -1.35575,1.69469 -1.694689,5.42301 -0.33894,3.72832 1.016809,6.77876 1.016809,6.77876 0,0 2.29395,-6.07483 3.72832,-8.98186 0.75029,-1.5206 1.36441,-3.18621 2.54204,-4.40619 1.11036,-1.15029 2.52307,-2.12783 4.06725,-2.54204 1.58321,-0.42467 3.3656,-0.36668 4.91461,0.16947 3.70498,1.2824 9.490257,6.94823 9.490257,6.94823 0,0 2.35255,-0.12386 3.38938,0.33894 4.81974,2.15134 8.03224,6.87466 11.69336,10.67655 3.33639,3.46466 9.3208,11.01549 9.3208,11.01549 l 0,0 4.4062,9.49026 2.54203,2.37257 c 0,0 0.11845,3.85363 0.84735,5.59248 0.76435,1.82341 2.11328,3.39628 3.55885,4.74513 0.8363,0.78035 2.88097,1.86416 2.88097,1.86416 0,0 -0.1889,2.31644 0.16947,3.38938 0.73462,2.19939 2.17759,4.20699 3.89779,5.76195 1.23747,1.1186 4.40619,2.37256 4.40619,2.37256 0,0 0.70754,2.97804 1.52522,4.23673 1.02297,1.5747 2.42908,2.9799 4.06726,3.89779 0.96822,0.5425 3.21991,0.84734 3.21991,0.84734 0,0 0.96465,3.60462 2.03363,5.08407 1.64359,2.27469 4.06418,3.92906 6.43982,5.42302 1.04877,0.65954 3.38938,1.52522 3.38938,1.52522 0,0 2.78765,3.10441 4.4062,4.4062 1.30654,1.05085 2.7419,1.95199 4.23672,2.7115 0.97265,0.4942 3.05044,1.18628 3.05044,1.18628 0,0 3.05144,2.74833 4.74514,3.89779 2.02936,1.37727 4.06496,2.9463 6.43982,3.55885 1.42219,0.36683 4.4062,0 4.4062,0 0,0 2.17153,2.81579 3.55884,3.89779 1.31536,1.02589 2.80369,1.90933 4.4062,2.37257 1.5775,0.45601 4.9146,0.33893 4.9146,0.33893 0,0 2.10295,2.24085 3.38938,3.05045 1.75794,1.10634 3.70679,2.07147 5.76195,2.37256 1.68515,0.24688 5.08407,-0.5084 5.08407,-0.5084 0,0 1.29022,2.72909 2.37257,3.72831 1.59678,1.47414 3.63704,2.5948 5.76194,3.05045 1.71582,0.36793 5.25354,-0.33894 5.25354,-0.33894 0,0 1.8625,1.22199 2.2031,2.2031 0.31712,0.91347 0.19451,2.07448 -0.33894,2.88097 -0.50251,0.75971 -2.37256,1.35575 -2.37256,1.35575 0,0 -2.1107,1.27133 -2.88098,2.2031 -0.80482,0.97355 -1.25041,2.20694 -1.69469,3.38938 -0.47228,1.25695 -1.01681,3.89779 -1.01681,3.89779 0,0 -3.01633,2.46361 -4.06726,4.06725 -2.0297,3.09716 -3.09958,6.7633 -4.06726,10.33761 -0.86645,3.2004 -1.52522,9.82921 -1.52522,9.82921 0,0 -3.07717,0.57216 -4.23672,1.52522 -1.78126,1.46406 -2.70093,3.79125 -3.55885,5.93142 -0.66799,1.66637 -1.18629,5.25354 -1.18629,5.25354 0,0 -2.71046,1.17949 -3.72831,2.20309 -1.66007,1.66945 -2.61329,3.94477 -3.55885,6.10089 -0.61717,1.4073 -1.35576,4.40619 -1.35576,4.40619 0,0 -2.4298,0.6075 -3.38938,1.35575 -3.19004,2.48748 -5.29899,6.21588 -7.1177,9.82921 -0.50604,1.00538 -1.01681,3.21991 -1.01681,3.21991 0,0 -2.02504,0.18731 -2.88097,0.67788 -2.84261,1.62922 -5.21933,4.2362 -6.77876,7.11769 -0.46956,0.86764 -0.67788,2.88098 -0.67788,2.88098 0,0 -2.39699,-0.21276 -3.38938,0.33894 -1.61955,0.90036 -2.45216,2.80769 -3.38938,4.40619 -0.65279,1.11338 -1.52522,3.55885 -1.52522,3.55885 0,0 -4.00066,0.0502 -5.93142,0.50841 -1.47993,0.35121 -3.04029,0.7555 -4.23672,1.69469 -1.14672,0.90017 -2.54204,3.55885 -2.54204,3.55885 0,0 -3.06079,1.51001 -4.40619,2.54203 -1.71147,1.31282 -3.25875,2.86736 -4.57567,4.57567 -0.95827,1.24307 -2.37256,4.06725 -2.37256,4.06725 0,0 -3.50765,2.9285 -5.08407,4.57567 -0.86017,0.89877 -2.37257,2.88097 -2.37257,2.88097 0,0 -3.66046,1.12442 -5.42301,1.86416 -1.86356,0.78213 -3.6803,1.688 -5.42301,2.7115 -1.29701,0.76174 -3.72832,2.54204 -3.72832,2.54204 0,0 -2.51735,0.0376 -3.72832,0.33894 -1.84274,0.45851 -3.71569,1.08912 -5.25354,2.20309 -0.90808,0.65778 -2.20309,2.54204 -2.20309,2.54204 0,0 -3.27543,-0.17156 -4.91461,-0.16947 -1.52626,0.002 -3.06565,-0.0527 -4.57566,0.16947 -1.32844,0.19548 -3.79187,0.76261 -3.79187,0.76261 0,0 -4.265687,-0.71969 -6.376267,-0.88971 -2.36491,-0.1905 -7.1177,0.1271 -7.1177,0.1271 l -9.02423,-1.90652 -5.224459,3.75377 c 0,0 5.285459,2.18894 7.469929,2.3895 2.30706,0.21182 4.65271,-0.48249 6.94823,-0.16947 1.34565,0.1835 2.55857,0.96061 3.89779,1.18628 2.89877,0.48847 5.89317,-0.007 8.812387,0.33894 1.14417,0.13555 2.2418,0.57516 3.38938,0.67787 2.98256,0.26695 6.0647,0.50665 8.98186,-0.16946 0.91092,-0.21112 1.63436,-0.96158 2.54203,-1.18629 2.25088,-0.55724 4.71424,0.28256 6.94823,-0.33894 2.41063,-0.67065 4.24462,-2.74078 6.60929,-3.55885 2.49258,-0.86232 5.37748,-0.30248 7.79558,-1.35575 3.51142,-1.52949 5.78641,-5.11882 9.15133,-6.94823 1.89957,-1.03274 4.2229,-1.1316 6.10088,-2.2031 1.46375,-0.83516 2.3518,-2.54911 3.89779,-3.21991 1.61979,-0.70283 3.61087,-0.0303 5.25354,-0.67787 2.52313,-0.99462 4.57488,-2.95164 6.60929,-4.74514 1.61912,-1.42738 2.71918,-3.39866 4.40619,-4.74513 1.93863,-1.5473 4.53739,-2.13673 6.43983,-3.72832 1.47565,-1.23454 2.16126,-3.28996 3.72832,-4.40619 1.52946,-1.08944 3.53626,-1.27396 5.25354,-2.03363 1.50172,-0.66431 3.01913,-1.32416 4.40619,-2.2031 1.69913,-1.07669 3.03401,-2.67079 4.74513,-3.72832 1.91309,-1.18235 4.24964,-1.60396 6.10089,-2.88097 1.74296,-1.20231 2.85473,-3.17256 4.57566,-4.40619 1.49901,-1.07455 3.4172,-1.46525 4.9146,-2.54204 2.04334,-1.46938 3.09022,-4.30888 5.42301,-5.25354 0.83775,-0.33925 1.85406,0.28582 2.71151,0 1.07182,-0.35727 1.93509,-1.21289 2.7115,-2.03363 0.83982,-0.88777 1.04023,-2.33869 2.03363,-3.05044 1.42574,-1.02151 3.52511,-0.55211 5.08407,-1.35575 1.89009,-0.97434 3.44737,-2.52811 4.9146,-4.06726 1.16933,-1.22664 1.79495,-2.92897 3.05045,-4.06726 1.37086,-1.24289 3.0179,-2.21712 4.74513,-2.88097 1.12722,-0.43324 2.47752,-0.14024 3.55885,-0.67788 2.11299,-1.05059 3.18698,-3.60594 5.25354,-4.74513 1.28434,-0.70799 2.91874,-0.54308 4.23672,-1.18628 2.39628,-1.16943 4.04355,-3.5757 6.43983,-4.74513 1.31798,-0.6432 2.99865,-0.40018 4.23672,-1.18629 1.38625,-0.88021 1.84831,-2.82545 3.21991,-3.72832 0.94015,-0.61886 2.27017,-0.41279 3.21991,-1.01681 1.61925,-1.02982 2.28676,-3.19409 3.89779,-4.23673 1.64966,-1.06764 3.94869,-0.78751 5.59248,-1.86415 0.63576,-0.41641 0.88516,-1.28493 1.52522,-1.69469 1.4446,-0.92483 3.37128,-0.77667 4.9146,-1.52523 0.98687,-0.47867 1.69864,-1.44329 2.71151,-1.86416 1.69838,-0.70572 3.59291,-0.83441 5.42301,-1.01681 8.43242,-0.84044 25.42035,-0.33894 25.42035,-0.33894 0,0 1.47549,-2.88793 2.03363,-4.40621 0.87013,-2.36701 1.54709,-4.81268 2.03363,-7.28717 0.65834,-3.34826 1.0241,-6.75963 1.18628,-10.16814 0.25511,-5.36164 0.16007,-10.7551 -0.33894,-16.09956 -0.35138,-3.76338 -1.00553,-7.50403 -1.86416,-11.18496 -0.71044,-3.04564 -1.55608,-6.07571 -2.7115,-8.98185 -0.84001,-2.1128 -1.83985,-4.1763 -3.05044,-6.10088 -1.5221,-2.41984 -5.25355,-6.77877 -5.25355,-6.77877 z"
             inkscape:connector-curvature="0"
             sodipodi:nodetypes="cssssssssssssssssscscsssscssccccsscsscsscsscsscsscsscsscsscsscsscsscsscsscsscsscsscsscsscscssccsccccscccssscssssssssscssssssssssssssssssssssssssssssscaaaaaaac" />
          <path
             style="font-size:40px;font-style:normal;font-variant:normal;font-weight:normal;font-stretch:normal;line-height:125%;letter-spacing:0px;word-spacing:0px;fill:#000000;fill-opacity:1;stroke:none;font-family:Arial;-inkscape-font-specification:Arial"
             d="m 101.20186,487.83007 c 0,0 -11.673017,5.0078 -17.285837,7.96505 -3.60841,1.90118 -10.507079,6.27035 -10.507079,6.27035 0,0 -3.02363,1.91925 -4.4062,3.05044 -1.66599,1.36307 -3.15798,2.92905 -4.65438,4.4764 -1.63725,1.69299 -3.19408,3.46344 -4.72457,5.25354 -1.51356,1.7703 -3.06236,3.52065 -4.40619,5.42301 -1.47309,2.08534 -2.7928,4.28323 -3.98854,6.53909 -1.54056,2.90639 -2.79533,5.95698 -4.08782,8.98186 -0.95623,2.23792 -1.72662,4.5533 -2.7115,6.77876 -0.94064,2.12549 -1.88262,4.2607 -3.05045,6.27035 -1.30683,2.24884 -2.83934,4.36376 -4.40619,6.43986 -1.2385,1.641 -2.50493,3.2731 -3.94016,4.7451 -1.7677,1.813 -3.71303,3.4548 -5.71958,4.9993 -3.24042,2.4944 -10.16814,6.8635 -10.16814,6.8635 0,0 1.69991,0.4859 2.54204,0.339 2.17785,-0.3799 4.02026,-1.8694 5.88904,-3.0505 2.05338,-1.2977 3.9051,-2.8917 5.80432,-4.4062 2.56179,-2.0427 7.53711,-6.3097 7.53711,-6.3097 0,0 -1.7284,4.3817 -2.79198,6.4792 -1.00777,1.9874 -2.08717,3.9538 -3.38938,5.762 -1.35712,1.8844 -2.98427,3.5622 -4.57566,5.2535 -0.79246,0.8422 -2.47272,2.4334 -2.47272,2.4334 0,0 1.72648,0.2367 2.53609,-0.01 1.56765,-0.4711 2.85789,-1.6352 4.10427,-2.6963 1.95898,-1.6678 3.65771,-3.6424 5.21273,-5.692 1.91937,-2.5299 3.53484,-5.2888 5.03297,-8.0887 1.23129,-2.3013 2.14213,-4.7602 3.23548,-7.1301 2.6799,-5.80879 5.23544,-11.68035 8.14863,-17.37573 1.96642,-3.84441 3.87709,-7.74392 6.29121,-11.32419 1.86587,-2.7672 4.4064,-5.72917 6.29123,-7.78912 1.88483,-2.05995 3.36748,-3.90951 6.2313,-6.5908 2.863819,-2.68129 6.179419,-5.67767 9.706439,-7.90896 1.17773,-0.74506 3.77473,-1.79749 3.77473,-1.79749 l 16.716657,-8.26846 c 0,0 1.89088,-1.20864 2.39665,-2.15699 0.26582,-0.49844 0.35876,-1.12545 0.23967,-1.67765 -0.1647,-0.76366 -0.65534,-1.48045 -1.25824,-1.97724 -0.46369,-0.38208 -1.07683,-0.65991 -1.67766,-0.65908 -0.52641,7.2e-4 -1.46829,0.5815 -1.46829,0.5815 z"
             id="path3125-6"
             inkscape:connector-curvature="0"
             sodipodi:nodetypes="cacaaaaaaaaaaacaaacaaacaaaaaaazzaccaaaac" />
          <path
             style="font-size:40px;font-style:normal;font-variant:normal;font-weight:normal;font-stretch:normal;line-height:125%;letter-spacing:0px;word-spacing:0px;fill:#afaf2a;fill-opacity:1;stroke:#80801f;stroke-width:0.5;stroke-linecap:butt;stroke-linejoin:miter;stroke-miterlimit:4;stroke-opacity:1;stroke-dasharray:none;font-family:Arial;-inkscape-font-specification:Arial"
             d="m 152.72044,288.19555 c -0.36262,-1.54062 -0.41172,-3.18107 -0.16947,-4.74514 0.25707,-1.65977 0.79655,-3.32588 1.69469,-4.74513 0.85441,-1.35013 2.0555,-2.50982 3.38939,-3.38938 1.26982,-0.83731 2.73768,-1.43696 4.23672,-1.69469 1.39294,-0.23949 2.8479,-0.0927 4.23673,0.16947 1.52725,0.28836 3.06642,0.7374 4.40619,1.52522 1.24148,0.73003 2.27063,1.79789 3.21991,2.88097 0.99143,1.13117 2.01986,2.31772 2.54204,3.72832 0.53275,1.43917 0.64435,3.04709 0.50841,4.57567 -0.14092,1.58451 -0.59542,3.17837 -1.35576,4.57566 -0.74679,1.3724 -1.86835,2.53716 -3.05044,3.55885 -0.96043,0.83011 -2.02591,1.6025 -3.21991,2.03363 -1.23239,0.44499 -2.58869,0.56365 -3.89779,0.5084 -1.32843,-0.0561 -2.65188,-0.38306 -3.89779,-0.84734 -1.32652,-0.49432 -2.53435,-1.27307 -3.72831,-2.03363 -1.12445,-0.71628 -2.38037,-1.33691 -3.21992,-2.37257 -0.85966,-1.06046 -1.38192,-2.39949 -1.69469,-3.72831 z"
             id="path3090-6"
             inkscape:connector-curvature="0"
             sodipodi:nodetypes="aaaaaaaaaaaaaaaaaa" />
          <path
             style="font-size:40px;font-style:normal;font-variant:normal;font-weight:normal;font-stretch:normal;line-height:125%;letter-spacing:0px;word-spacing:0px;fill:#000000;fill-opacity:1;stroke:none;font-family:Arial;-inkscape-font-specification:Arial"
             d="m 159.6506,293.1191 c 0,0 -0.35458,-3.84865 -0.11984,-5.75196 0.16724,-1.35603 0.41556,-2.75979 1.0785,-3.95448 0.71317,-1.28521 1.82942,-2.34111 2.99581,-3.23549 1.36118,-1.04373 4.55365,-2.39665 4.55365,-2.39665 0,0 0.43702,2.46699 0.47933,3.71481 0.0447,1.31982 0.13012,2.68674 -0.23967,3.95448 -0.34548,1.1844 -1.04561,2.25731 -1.79749,3.23549 -0.94688,1.23185 -2.02627,2.43068 -3.35531,3.23548 -1.08049,0.65428 -3.59498,1.19832 -3.59498,1.19832 z"
             id="path3146-6"
             inkscape:connector-curvature="0"
             sodipodi:nodetypes="caaacaaaac" />
          <path
             style="font-size:40px;font-style:normal;font-variant:normal;font-weight:normal;font-stretch:normal;line-height:125%;letter-spacing:0px;word-spacing:0px;fill:#000000;fill-opacity:1;stroke:none;font-family:Arial;-inkscape-font-specification:Arial"
             d="m 116.79301,254.04754 c -0.29268,-0.63086 -0.50143,-1.33908 -0.46604,-2.03363 0.0425,-0.83406 0.33842,-1.67991 0.80498,-2.37257 0.45869,-0.68097 1.12088,-1.26116 1.86416,-1.60995 0.77766,-0.36493 1.68528,-0.48626 2.54203,-0.42368 0.8285,0.0605 1.69014,0.28894 2.37257,0.76261 0.56169,0.38987 1.00863,0.97857 1.27102,1.60996 0.27292,0.65674 0.31409,1.4097 0.2542,2.11836 -0.067,0.79256 -0.20581,1.6477 -0.67788,2.28784 -0.48354,0.65568 -1.26969,1.07262 -2.03362,1.35575 -0.65371,0.24228 -1.38137,0.31369 -2.07599,0.2542 -1.07282,-0.0919 -2.21028,-0.31525 -3.09282,-0.93208 -0.34726,-0.24271 -0.5843,-0.63249 -0.76261,-1.01681 z"
             id="path4198-4"
             inkscape:connector-curvature="0"
             sodipodi:nodetypes="aaaaaaaaaaaaa" />
          <path
             style="font-size:40px;font-style:normal;font-variant:normal;font-weight:normal;font-stretch:normal;line-height:125%;letter-spacing:0px;word-spacing:0px;fill:#000000;fill-opacity:1;stroke:none;font-family:Arial;-inkscape-font-specification:Arial"
             d="m 122.72443,265.14776 c 0.31777,-0.73297 0.93905,-1.43542 1.69469,-1.69469 0.86156,-0.29561 1.87238,-0.0154 2.7115,0.33894 0.66644,0.28141 1.28092,0.76234 1.69469,1.35575 0.4087,0.58612 0.70758,1.3197 0.67788,2.03363 -0.0358,0.85968 -0.34867,1.83043 -1.01682,2.37256 -0.67102,0.54447 -1.68386,0.60972 -2.54203,0.50841 -0.80323,-0.0948 -1.56052,-0.52563 -2.2031,-1.01681 -0.45396,-0.34701 -0.91501,-0.7733 -1.10155,-1.31339 -0.28139,-0.8147 -0.25811,-1.79359 0.0847,-2.5844 z"
             id="path4196-3"
             inkscape:connector-curvature="0"
             sodipodi:nodetypes="aaaaaaaaaa" />
        </g>
      </g>
      <text
         xml:space="preserve"
         style="font-size:40px;font-style:normal;font-variant:normal;font-weight:normal;font-stretch:normal;line-height:125%;letter-spacing:0px;word-spacing:0px;fill:#000000;fill-opacity:1;stroke:#ffffff;stroke-width:1;stroke-miterlimit:4;stroke-dasharray:none;font-family:Arial;-inkscape-font-specification:Arial"
         x="324.62268"
         y="278.08023"
         id="text4539"
         sodipodi:linespacing="125%"><tspan
           sodipodi:role="line"
           id="tspan4541"
           x="324.62268"
           y="278.08023"
           style="font-style:normal;font-variant:normal;font-weight:bold;font-stretch:normal;stroke:#ffffff;stroke-width:1;stroke-miterlimit:4;stroke-dasharray:none;font-family:Ubuntu;-inkscape-font-specification:Ubuntu Bold"
           dx="0 -3.5355339">PY<tspan
   style="font-weight:normal;-inkscape-font-specification:Ubuntu"
   id="tspan5084"
   dx="-3.5355339 -3.5355339 -3.5355339 -3.5355339">DOOP</tspan></tspan></text>
    </g>
  </g>
</svg>
